<svg width="22" height="22" version="1.1" viewBox="0 0 5.8208332 5.8208333" xmlns="http://www.w3.org/2000/svg">
    <style type="text/css" id="current-color-scheme">
        .ColorScheme-Text {
        color:#232629;
        }
    </style>
    <g class="ColorScheme-Text" fill="currentColor">
        <path d="m1.5874999 0.79374976v0.52916674h-0.2645833v0.2645833h-0.5291667v0.2645833h0.5291667v0.5291667h-0.5291667v0.2645833h0.5291667v0.5291667h-0.5291667v0.2645833h0.5291667v0.5291667h-0.5291667v0.2645833h0.5291667v0.2645834h0.2645833v0.5291666h0.2645833v-0.5291666h0.5291667v0.5291666h0.2645833v-0.5291666h0.5291667v0.5291666h0.2645833v-0.5291666h0.5291667v0.5291666h0.2645833v-0.5291666h0.2645834v-0.2645834h0.5291666v-0.2645833h-0.5291666v-0.5291667h0.5291666v-0.2645833h-0.5291666v-0.5291667h0.5291666v-0.2645833h-0.5291666v-0.5291667h0.5291666v-0.2645833h-0.5291666v-0.2645833h-0.2645834v-0.52916674h-0.2645833v0.52916674h-0.5291667v-0.52916674h-0.2645833v0.52916674h-0.5291667v-0.52916674h-0.2645833v0.52916674h-0.5291667v-0.52916674zm0 0.79375004h2.6458333v2.6458333h-2.6458333z" stroke-width=".216031"/>
        <path d="m2.2489583 2.1166667v1.5875h0.2645834v-0.6614584h0.79375v0.6614584h0.2645833v-1.5875h-0.2645833v0.6614583h-0.79375v-0.6614583h-0.2645834z" stroke-linecap="round" stroke-width=".264583" style="font-variation-settings:'opsz' 32, 'wght' 610"/>
    </g>
</svg>
